<svg xmlns="http://www.w3.org/2000/svg" viewBox="0 0 1200 800" role="img" aria-labelledby="title desc">
  <title id="title">Poultry External Parasites</title>
  <desc id="desc">Illustration of poultry external parasite monitoring.</desc>
  <defs>
    <linearGradient id="bg" x1="0" y1="0" x2="1" y2="1">
      <stop offset="0%" stop-color="#f0fdf4" />
      <stop offset="100%" stop-color="#dcfce7" />
    </linearGradient>
  </defs>
  <rect width="1200" height="800" fill="url(#bg)" />
  <circle cx="980" cy="130" r="90" fill="#bbf7d0" />
  <rect x="130" y="170" width="940" height="460" rx="24" fill="#ffffff" stroke="#16a34a" stroke-width="5" />
  <ellipse cx="460" cy="460" rx="180" ry="120" fill="#fef9c3" stroke="#92400e" stroke-width="6" />
  <circle cx="610" cy="410" r="70" fill="#fde68a" stroke="#92400e" stroke-width="6" />
  <circle cx="642" cy="392" r="8" fill="#111827" />
  <polygon points="676,412 738,428 676,444" fill="#f97316" />
  <path d="M312 370 C360 320 412 320 460 370" fill="none" stroke="#92400e" stroke-width="6" />
  <g fill="#dc2626">
    <circle cx="370" cy="300" r="12" />
    <circle cx="395" cy="280" r="10" />
    <circle cx="420" cy="295" r="11" />
    <circle cx="448" cy="278" r="9" />
  </g>
  <rect x="760" y="270" width="240" height="190" rx="18" fill="#ecfdf5" stroke="#16a34a" stroke-width="4" />
  <text x="780" y="325" font-family="Verdana, sans-serif" font-size="30" fill="#166534">Check feathers</text>
  <text x="780" y="365" font-family="Verdana, sans-serif" font-size="30" fill="#166534">every week</text>
  <text x="180" y="730" font-family="Verdana, sans-serif" font-size="46" font-weight="700" fill="#14532d">External Parasite Watch</text>
</svg>
